# xmcd
#
# Track frame offsets: 
#        150
#        11677
#        27540
#        56442
#        67830
#        91365
#        105527
#        120402
#        141730
#        159755
#        168427
#        187352
#
# Disc length: 2709 seconds
#
# Revision: 1
# Processed by: cddbd v1.5.2PL0 Copyright (c) Steve Scherf et al.
# Submitted via: ExactAudioCopy v1.0b3
#
DISCID=a00a930c
DTITLE=Clarence "Gatemouth" Brown - Blackjack
DYEAR=1977
DGENRE=Blues
TTITLE0=Here Am I
TTITLE1=Tippin' In
TTITLE2=Song For Renee (Gate's Tune)
TTITLE3=When My Blue Moon Turns To Gold Again
TTITLE4=Street Corner
TTITLE5=Pressure Cooker
TTITLE6=Chickenshift
TTITLE7=Blackjack
TTITLE8=Honey Boy
TTITLE9=Take Me Back To Tulsa
TTITLE10=Dark End Of The Hallway
TTITLE11=Up Jumped The Devil
EXTD=
EXTT0=
EXTT1=
EXTT2=
EXTT3=
EXTT4=
EXTT5=
EXTT6=
EXTT7=
EXTT8=
EXTT9=
EXTT10=
EXTT11=
PLAYORDER=
